<?xml version="1.0" encoding="iso-8859-1"?>
<!-- Generator: Adobe Illustrator 19.0.0, SVG Export Plug-In . SVG Version: 6.00 Build 0)  -->
<svg version="1.1" id="Capa_1" xmlns="http://www.w3.org/2000/svg" xmlns:xlink="http://www.w3.org/1999/xlink" x="0px" y="0px"
	 viewBox="0 0 512 512" style="enable-background:new 0 0 512 512;" xml:space="preserve">
<circle style="fill:#4A7AFF;" cx="256" cy="256" r="256"/>
<path style="fill:#2864F0;" d="M511.166,276.685L309.457,74.976L64.272,320.579l191.417,191.417c0.104,0,0.207,0.004,0.311,0.004
	C390.42,512,500.633,408.396,511.166,276.685z"/>
<path style="fill:#FFC09C;" d="M435.728,269.456c0-63.678-51.621-115.298-115.298-115.298H203.805L145.851,115v51.362
	c-22.371,11.234-40.578,29.533-51.697,51.971H64.272v102.246h29.882c9.399,18.968,23.861,34.979,41.625,46.264L172.194,425h58.193
	v-40.246h80.072V425h58.193l43.956-86.276l-0.004,0.001C427.121,319.44,435.728,295.454,435.728,269.456L435.728,269.456z"/>
<path style="fill:#FFB387;" d="M435.728,269.456c0-63.677-51.621-115.298-115.298-115.298h-64.859v230.596h54.888V425h58.193
	l43.956-86.276l-0.004,0.001C427.121,319.44,435.728,295.454,435.728,269.456z"/>
<circle style="fill:#FFDE46;" cx="265.5" cy="115" r="59.45"/>
<path style="fill:#FFB64C;" d="M265.5,55.551c-0.136,0-0.269,0.01-0.405,0.01v118.877c0.136,0.001,0.269,0.01,0.405,0.01
	c32.833,0,59.449-26.616,59.449-59.449S298.333,55.551,265.5,55.551z"/>
<circle style="fill:#FFF04A;" cx="265.5" cy="115" r="43.957"/>
<path style="fill:#FFDE46;" d="M265.5,71.043c-0.136,0-0.269,0.009-0.405,0.01v87.893c0.135,0.001,0.269,0.01,0.405,0.01
	c24.277,0,43.957-19.68,43.957-43.957S289.777,71.043,265.5,71.043z"/>
<path style="fill:#E89F00;" d="M287.339,126.293c0-10.394-8.456-18.851-18.851-18.851h-5.977c-2.06,0-3.736-1.676-3.736-3.736
	s1.676-3.737,3.736-3.737h22.308V84.856h-11.763v-6.55h-15.114v7.133c-8.19,2.05-14.282,9.451-14.282,18.267
	c0,10.394,8.456,18.851,18.851,18.851h5.977c2.06,0,3.736,1.676,3.736,3.736s-1.676,3.737-3.736,3.737H246.18v15.114h11.763v6.55
	h15.114v-7.133C281.247,142.51,287.339,135.11,287.339,126.293z"/>
<g>
	<polygon style="fill:#E0911B;" points="284.82,99.97 284.82,84.856 273.057,84.856 273.057,78.306 265.095,78.306 265.095,99.97 	
		"/>
	<path style="fill:#E0911B;" d="M268.488,107.443h-3.393v15.114h3.393c2.06,0,3.736,1.676,3.736,3.736s-1.676,3.737-3.736,3.737
		h-3.393v21.664h7.962v-7.133c8.19-2.05,14.282-9.451,14.282-18.267C287.339,115.899,278.883,107.443,268.488,107.443z"/>
</g>
<g>
	<circle style="fill:#FA8D5F;" cx="152.38" cy="236.28" r="17.947"/>
	<rect x="218.55" y="171.2" style="fill:#FA8D5F;" width="93.91" height="14.503"/>
</g>
<rect x="255.57" y="171.2" style="fill:#E5805C;" width="56.882" height="14.503"/>
<g>
</g>
<g>
</g>
<g>
</g>
<g>
</g>
<g>
</g>
<g>
</g>
<g>
</g>
<g>
</g>
<g>
</g>
<g>
</g>
<g>
</g>
<g>
</g>
<g>
</g>
<g>
</g>
<g>
</g>
</svg>
