<svg height="512pt" viewBox="-4 0 512 512.00009" width="512pt" xmlns="http://www.w3.org/2000/svg"><path d="m459.933594 373.152344c0 14.378906-11.65625 26.035156-26.035156 26.035156h-104.136719c11.570312-15.429688 11.570312-36.640625 0-52.070312h104.136719c14.378906 0 26.035156 11.65625 26.035156 26.035156zm0 0" fill="#f9eab0"/><path d="m433.898438 407.863281h-112.8125c-4.792969 0-8.679688-3.882812-8.679688-8.675781s3.886719-8.679688 8.679688-8.679688h112.8125c9.585937 0 17.355468-7.769531 17.355468-17.355468 0-9.585938-7.769531-17.355469-17.355468-17.355469h-112.8125c-4.792969 0-8.679688-3.886719-8.679688-8.679687 0-4.792969 3.886719-8.675782 8.679688-8.675782h112.8125c19.171874 0 34.710937 15.539063 34.710937 34.710938s-15.539063 34.710937-34.710937 34.710937zm0 0" fill="#af8066"/><path d="m433.898438 425.21875c-.449219 9.457031 2.644531 18.742188 8.679687 26.035156h-104.136719c-14.378906 0-26.035156-11.65625-26.035156-26.035156 0-14.375 11.65625-26.03125 26.035156-26.03125h104.136719c-6.035156 7.292969-9.128906 16.578125-8.679687 26.03125zm0 0" fill="#f9eab0"/><path d="m451.253906 459.933594h-112.8125c-19.171875 0-34.710937-15.542969-34.710937-34.714844 0-19.167969 15.539062-34.710938 34.710937-34.710938h112.8125c4.792969 0 8.679688 3.886719 8.679688 8.679688s-3.886719 8.675781-8.679688 8.675781h-112.8125c-9.585937 0-17.355468 7.773438-17.355468 17.355469 0 9.585938 7.769531 17.359375 17.355468 17.359375h112.8125c4.792969 0 8.679688 3.882813 8.679688 8.675781 0 4.792969-3.886719 8.679688-8.679688 8.679688zm0 0" fill="#7f5b53"/><path d="m179.199219 9.894531c-12.417969-6.519531-26.238281-9.9140622-40.265625-9.894531h-50.765625c-48.691407.0078125-88.1601565 39.476562-88.167969 88.167969v110.035156c.0078125 48.691406 39.476562 88.160156 88.167969 88.167969h50.765625c22.996094.019531 45.058594-9.109375 61.320312-25.371094 16.261719-16.261719 25.390625-38.324219 25.375-61.320312v-112.988282c.023438-32.246094-17.863281-61.835937-46.429687-76.796875zm-41.738281 224.410157h-49.292969c-9.578125.007812-18.761719-3.792969-25.535157-10.566407-6.769531-6.769531-10.570312-15.957031-10.566406-25.535156v-110.035156c-.003906-9.578125 3.796875-18.761719 10.566406-25.535157 6.773438-6.769531 15.957032-10.570312 25.535157-10.566406h49.292969c9.574218-.003906 18.761718 3.796875 25.53125 10.566406 6.773437 6.773438 10.574218 15.957032 10.566406 25.535157v110.035156c.007812 9.578125-3.792969 18.765625-10.566406 25.535156-6.769532 6.773438-15.957032 10.574219-25.53125 10.566407zm0 0" fill="#cc66a1"/><path d="m456.894531 9.894531c-12.417969-6.519531-26.238281-9.9140622-40.265625-9.894531h-50.765625c-48.691406.0078125-88.160156 39.476562-88.167969 88.167969v110.035156c.007813 48.691406 39.476563 88.160156 88.167969 88.167969h50.765625c22.996094.019531 45.058594-9.109375 61.320313-25.371094s25.390625-38.324219 25.371093-61.320312v-112.988282c.027344-32.246094-17.859374-61.835937-46.425781-76.796875zm-41.742187 224.410157h-49.289063c-9.578125.007812-18.761719-3.792969-25.535156-10.566407-6.769531-6.769531-10.574219-15.957031-10.566406-25.535156v-110.035156c-.007813-9.578125 3.796875-18.761719 10.566406-25.535157 6.773437-6.769531 15.957031-10.570312 25.535156-10.566406h49.289063c9.578125-.003906 18.765625 3.796875 25.535156 10.566406 6.773438 6.773438 10.574219 15.957032 10.566406 25.535157v110.035156c.007813 9.578125-3.792968 18.765625-10.566406 25.535156-6.769531 6.773438-15.957031 10.574219-25.535156 10.566407zm0 0" fill="#804169"/><path d="m164.882812 347.117188v156.203124h-112.816406c-4.792968 0-8.675781-3.882812-8.675781-8.675781v-138.847656c0-4.792969 3.882813-8.679687 8.675781-8.679687zm0 0" fill="#7f5b53"/><path d="m164.882812 347.117188v156.203124h112.8125c4.792969 0 8.675782-3.882812 8.675782-8.675781v-138.847656c0-4.792969-3.882813-8.679687-8.675782-8.679687zm0 0" fill="#af8066"/><path d="m164.882812 485.003906c-24.796874-21.859375-61.984374-21.859375-86.78125 0v-156.203125c24.796876-21.859375 61.984376-21.859375 86.78125 0zm0 0" fill="#f9eab0"/><path d="m251.660156 485.003906c-24.796875-21.859375-61.980468-21.859375-86.777344 0v-156.203125c24.796876-21.859375 61.980469-21.859375 86.777344 0zm0 0" fill="#f5efca"/><g fill="#2c3e50"><path d="m130.167969 355.796875h-17.355469c-4.792969 0-8.675781-3.886719-8.675781-8.679687 0-4.792969 3.882812-8.675782 8.675781-8.675782h17.355469c4.792969 0 8.679687 3.882813 8.679687 8.675782 0 4.792968-3.886718 8.679687-8.679687 8.679687zm0 0"/><path d="m130.167969 381.832031h-17.355469c-4.792969 0-8.675781-3.886719-8.675781-8.679687 0-4.792969 3.882812-8.675782 8.675781-8.675782h17.355469c4.792969 0 8.679687 3.882813 8.679687 8.675782 0 4.792968-3.886718 8.679687-8.679687 8.679687zm0 0"/><path d="m130.167969 407.863281h-17.355469c-4.792969 0-8.675781-3.882812-8.675781-8.675781s3.882812-8.679688 8.675781-8.679688h17.355469c4.792969 0 8.679687 3.886719 8.679687 8.679688s-3.886718 8.675781-8.679687 8.675781zm0 0"/><path d="m130.167969 433.898438h-17.355469c-4.792969 0-8.675781-3.886719-8.675781-8.679688s3.882812-8.675781 8.675781-8.675781h17.355469c4.792969 0 8.679687 3.882812 8.679687 8.675781s-3.886718 8.679688-8.679687 8.679688zm0 0"/><path d="m216.949219 433.898438h-17.355469c-4.792969 0-8.679688-3.886719-8.679688-8.679688s3.886719-8.675781 8.679688-8.675781h17.355469c4.792969 0 8.679687 3.882812 8.679687 8.675781s-3.886718 8.679688-8.679687 8.679688zm0 0"/><path d="m216.949219 407.863281h-17.355469c-4.792969 0-8.679688-3.882812-8.679688-8.675781s3.886719-8.679688 8.679688-8.679688h17.355469c4.792969 0 8.679687 3.886719 8.679687 8.679688s-3.886718 8.675781-8.679687 8.675781zm0 0"/><path d="m216.949219 381.832031h-17.355469c-4.792969 0-8.679688-3.886719-8.679688-8.679687 0-4.792969 3.886719-8.675782 8.679688-8.675782h17.355469c4.792969 0 8.679687 3.882813 8.679687 8.675782 0 4.792968-3.886718 8.679687-8.679687 8.679687zm0 0"/><path d="m216.949219 355.796875h-17.355469c-4.792969 0-8.679688-3.886719-8.679688-8.679687 0-4.792969 3.886719-8.675782 8.679688-8.675782h17.355469c4.792969 0 8.679687 3.882813 8.679687 8.675782 0 4.792968-3.886718 8.679687-8.679687 8.679687zm0 0"/></g><path d="m442.578125 477.289062c-.453125 9.453126 2.640625 18.738282 8.675781 26.03125h-104.136718c-14.375 0-26.03125-11.652343-26.03125-26.03125 0-14.378906 11.65625-26.035156 26.03125-26.035156h104.136718c-6.035156 7.296875-9.128906 16.578125-8.675781 26.035156zm0 0" fill="#f9eab0"/><path d="m459.933594 512h-112.816406c-19.167969 0-34.710938-15.539062-34.710938-34.710938 0-19.171874 15.542969-34.710937 34.710938-34.710937h112.816406c4.792968 0 8.675781 3.882813 8.675781 8.675781 0 4.792969-3.882813 8.679688-8.675781 8.679688h-112.816406c-9.582032 0-17.355469 7.769531-17.355469 17.355468 0 9.585938 7.773437 17.355469 17.355469 17.355469h112.816406c4.792968 0 8.675781 3.886719 8.675781 8.675781 0 4.792969-3.882813 8.679688-8.675781 8.679688zm0 0" fill="#af8066"/></svg>